<?xml version="1.0" encoding="UTF-8" standalone="no"?>
<svg
   xmlns:dc="http://purl.org/dc/elements/1.1/"
   xmlns:cc="http://creativecommons.org/ns#"
   xmlns:rdf="http://www.w3.org/1999/02/22-rdf-syntax-ns#"
   xmlns:svg="http://www.w3.org/2000/svg"
   xmlns="http://www.w3.org/2000/svg"
   xml:space="preserve"
   style="enable-background:new 0 0 883 883;"
   viewBox="0 0 883 883"
   height="883px"
   width="883px"
   y="0px"
   x="0px"
   id="Capa_1"
   version="1.1"><metadata
     id="metadata4800"><rdf:RDF><cc:Work
         rdf:about=""><dc:format>image/svg+xml</dc:format><dc:type
           rdf:resource="http://purl.org/dc/dcmitype/StillImage" /><dc:title></dc:title></cc:Work></rdf:RDF></metadata><defs
     id="defs4798" /><g
     id="g4754"><path
       style="stroke:#999999;stroke-opacity:1;fill:#999999;fill-opacity:1"
       id="path4756"
       d="M20,0C8.954,0,0,8.954,0,20v294.205c0,11.046,8.954,20,20,20h35c11.046,0,20-8.954,20-20V95c0-11.046,8.954-20,20-20   h219.206c11.046,0,20-8.954,20-20V20c0-11.046-8.954-20-20-20H20z" /><path
       style="stroke:#999999;stroke-opacity:1;fill:#999999;fill-opacity:1"
       id="path4758"
       d="M883,192.104v-36.721V20c0-11.046-8.954-20-20-20h-99.5h-18H568.795c-11.046,0-20,8.954-20,20v35c0,11.046,8.954,20,20,20   H745.5h18H788c11.046,0,20,8.954,20,20v60.383v36.721v122.103c0,11.046,8.954,20,20,20h35c11.046,0,20-8.954,20-20V192.104z" /><path
       style="stroke:#999999;stroke-opacity:1;fill:#999999;fill-opacity:1"
       id="path4760"
       d="M20,883h294.205c11.046,0,20-8.953,20-20v-35c0-11.047-8.954-20-20-20H95c-11.046,0-20-8.953-20-20V568.795   c0-11.047-8.954-20-20-20H20c-11.046,0-20,8.953-20,20V863C0,874.047,8.954,883,20,883z" /><path
       style="stroke:#999999;stroke-opacity:1;fill:#999999;fill-opacity:1"
       id="path4762"
       d="M568.794,883H863c11.046,0,20-8.953,20-20V568.795c0-11.047-8.954-20-20-20h-35c-11.046,0-20,8.953-20,20V788   c0,11.047-8.954,20-20,20H568.794c-11.046,0-20,8.953-20,20v35C548.794,874.047,557.748,883,568.794,883z" /><path
       style="stroke:#999999;stroke-opacity:1;fill:#999999;fill-opacity:1"
       id="path4764"
       d="M664.562,757.566c11.046,0,20-8.955,20-20v-62.955c0-34.557-10.621-68.605-29.988-97.199   c-21.743-32.102-52.152-48.205-85.088-65.865c-21.21-11.373-40.93-27.947-50.469-49.57c60.982-29.013,103.14-91.189,103.14-163.216   c-0.001-99.774-80.884-180.656-180.657-180.656S260.844,198.986,260.844,298.76c0,72.027,42.157,134.203,103.14,163.216   c-9.539,21.623-29.259,38.197-50.469,49.57c-32.937,17.66-63.346,33.764-85.088,65.865c-19.367,28.594-29.988,62.645-29.988,97.199   v62.955c0,11.045,8.954,20,20,20H441.5H664.562L664.562,757.566z" /></g><g
     id="g4766" /><g
     id="g4768" /><g
     id="g4770" /><g
     id="g4772" /><g
     id="g4774" /><g
     id="g4776" /><g
     id="g4778" /><g
     id="g4780" /><g
     id="g4782" /><g
     id="g4784" /><g
     id="g4786" /><g
     id="g4788" /><g
     id="g4790" /><g
     id="g4792" /><g
     id="g4794" /></svg>