<?xml version="1.0" encoding="UTF-8" standalone="no"?>
<svg
   xmlns:dc="http://purl.org/dc/elements/1.1/"
   xmlns:cc="http://creativecommons.org/ns#"
   xmlns:rdf="http://www.w3.org/1999/02/22-rdf-syntax-ns#"
   xmlns:svg="http://www.w3.org/2000/svg"
   xmlns="http://www.w3.org/2000/svg"
   xmlns:sodipodi="http://sodipodi.sourceforge.net/DTD/sodipodi-0.dtd"
   xmlns:inkscape="http://www.inkscape.org/namespaces/inkscape"
   version="1.0"
   width="1052.000000pt"
   height="1052.000000pt"
   viewBox="0 0 1052.000000 1052.000000"
   preserveAspectRatio="xMidYMid meet"
   id="svg2"
   inkscape:version="0.91 r13725"
   sodipodi:docname="icon.svg">
  <defs
     id="defs14" />
  <sodipodi:namedview
     pagecolor="#ffffff"
     bordercolor="#666666"
     borderopacity="1"
     objecttolerance="10"
     gridtolerance="10"
     guidetolerance="10"
     inkscape:pageopacity="0"
     inkscape:pageshadow="2"
     inkscape:window-width="1920"
     inkscape:window-height="998"
     id="namedview12"
     showgrid="false"
     inkscape:zoom="0.50761126"
     inkscape:cx="315.69391"
     inkscape:cy="698.8809"
     inkscape:window-x="-8"
     inkscape:window-y="52"
     inkscape:window-maximized="1"
     inkscape:current-layer="svg2" />
  <metadata
     id="metadata4">
Created by potrace 1.10, written by Peter Selinger 2001-2011
<rdf:RDF>
  <cc:Work
     rdf:about="">
    <dc:format>image/svg+xml</dc:format>
    <dc:type
       rdf:resource="http://purl.org/dc/dcmitype/StillImage" />
    <dc:title></dc:title>
  </cc:Work>
</rdf:RDF>
</metadata>
  <g
     transform="translate(0.000000,1052.000000) scale(0.100000,-0.100000)"
     fill="#000000"
     stroke="none"
     id="g6">
    <path
       d="M7840 5740 c-378 -30 -695 -166 -931 -400 -243 -241 -359 -535 -359 -908 0 -558 229 -948 740 -1257 130 -78 307 -163 613 -295 417 -179 572 -264 671 -370 122 -131 156 -340 79 -500 -15 -31 -54 -83 -89 -118 -118 -119 -304 -182 -535 -182 -390 0 -681 160 -915 506 -32 46 -61 84 -65 84 -9 0 -770 -439 -786 -454 -10 -9 -2 -30 37 -94 304 -512 779 -812 1421 -898 168 -23 483 -22 644 0 404 57 707 191 942 419 250 241 373 553 373 944 0 250 -41 445 -134 638 -64 132 -128 221 -238 333 -211 214 -484 376 -1029 610 -412 177 -550 253 -641 350 -87 93 -124 202 -116 338 7 108 37 181 103 252 95 103 205 146 375 145 193 0 318 -50 445 -178 45 -44 103 -115 130 -158 31 -49 54 -76 62 -73 26 11 753 481 753 488 0 4 -37 62 -82 130 -96 144 -269 324 -388 403 -220 146 -455 221 -765 244 -152 12 -172 12 -315 1z"
       id="path8" />
    <path
       d="M4727 3923 l-3 -1768 -22 -83 c-29 -109 -63 -174 -123 -234 -84 -84 -192 -119 -372 -120 -257 -1 -411 108 -590 414 -29 48 -55 87 -58 86 -4 -2 -185 -111 -402 -242 l-395 -240 30 -60 c179 -357 489 -627 862 -751 394 -131 900 -119 1271 30 445 180 706 552 775 1105 6 56 10 681 10 1857 l0 1773 -490 0 -489 0 -4 -1767z"
       id="path10" />
  </g>
  <rect
     style="fill:#ff0000;fill-opacity:0;stroke:#000000;stroke-width:24;stroke-linecap:round;stroke-linejoin:miter;stroke-miterlimit:4;stroke-dasharray:none;stroke-dashoffset:24.92160034;stroke-opacity:1"
     id="rect4144"
     width="1051.1981"
     height="1052.7742"
     x="3.5217261e-006"
     y="0.80188179" />
</svg>
