<?xml version="1.0" encoding="UTF-8" standalone="no"?>
<svg
   xmlns:dc="http://purl.org/dc/elements/1.1/"
   xmlns:cc="http://creativecommons.org/ns#"
   xmlns:rdf="http://www.w3.org/1999/02/22-rdf-syntax-ns#"
   xmlns:svg="http://www.w3.org/2000/svg"
   xmlns="http://www.w3.org/2000/svg"
   viewBox="0 0 1802.6538 1388.2992"
   height="1388.2992"
   width="1802.6538"
   version="1.1"
   id="svg4136">
  <metadata
     id="metadata4142">
    <rdf:RDF>
      <cc:Work
         rdf:about="">
        <dc:format>image/svg+xml</dc:format>
        <dc:type
           rdf:resource="http://purl.org/dc/dcmitype/StillImage" />
        <dc:title></dc:title>
      </cc:Work>
    </rdf:RDF>
  </metadata>
  <defs
     id="defs4140" />
  <g
     transform="translate(151.3269,-55.850403)"
     id="g4164">
    <path
       id="path4178"
       d="m 152.99217,1265.8431 c -40.74849,-6.8827 -74.559335,-36.4161 -87.185457,-76.1556 -5.700699,-17.9423 -5.337963,12.0317 -5.337963,-441.09375 0,-394.48829 0.08673,-416.67554 1.658947,-424.38958 4.73213,-23.2181 14.800449,-42.6793 30.154754,-58.28656 16.641929,-16.91609 39.617349,-28.93375 58.655049,-30.68046 10.47815,-0.96136 1187.7708,-0.95264 1198.125,0.008 9.5473,0.88659 16.9843,3.2727 29.5313,9.47496 26.5393,13.11901 46.4873,36.65687 55.588,65.59151 5.745,18.26559 5.3495,-14.24227 5.3495,439.6875 0,454.00648 0.3968,421.44958 -5.3591,439.68758 -7.103,22.5069 -20.9959,41.8641 -40.5162,56.4516 -13.1257,9.8088 -33.9142,18.4351 -48.1637,19.9857 -2.9348,0.3194 -270.8652,0.654 -595.40077,0.7436 -472.6486,0.1304 -591.46453,-0.073 -597.09936,-1.0254 z"
       style="fill:#f3f3f3" />
    <path
       id="path4176"
       d="m 161.25,1266.5205 c -51.61096,-4.6504 -93.496116,-45.9004 -99.434685,-97.9267 -0.649674,-5.6917 -0.860936,-143.7479 -0.649167,-424.2188 0.286921,-380.00369 0.445217,-416.35206 1.8396,-422.41472 9.552086,-41.53166 38.416632,-73.0921 77.049112,-84.24534 9.00999,-2.60119 10.19095,-2.35509 18.90517,3.93976 28.44336,20.54649 589.95169,411.21313 591.03997,411.21313 1.08828,0 562.5967,-390.66664 591.0399,-411.21313 8.7143,-6.29485 9.8953,-6.54095 18.9052,-3.93976 38.6325,11.15324 67.4971,42.71368 77.0492,84.24534 1.3943,6.06266 1.5527,42.41103 1.8395,422.41472 0.2119,280.6159 7e-4,418.5307 -0.6496,424.2386 -4.7183,41.4094 -32.0367,76.6373 -70.7313,91.2101 -16.6601,6.2743 -22.7348,7.0306 -55.8904,6.9579 -16.2422,-0.036 -150.8203,-0.4603 -299.0625,-0.9438 -148.24219,-0.4835 -386.65881,-0.9401 -529.81471,-1.0147 -229.2408,-0.1195 -260.60373,0.032 -262.96875,1.2648 -2.19731,1.146 -7.02959,1.3779 -26.59154,1.2756 -13.14844,-0.068 -27.49219,-0.448 -31.875,-0.843 z"
       style="fill:#ebebeb" />
    <path
       id="path4174"
       d="m 153.03267,1265.1587 c -35.24422,-6.3888 -64.646279,-28.6261 -80.415086,-60.8195 -6.105893,-12.4656 -9.444927,-24.8104 -10.785977,-39.8765 -0.652468,-7.3303 -0.872576,-144.8646 -0.676054,-422.43145 l 0.291393,-411.5625 1.98778,-8.4375 c 7.240428,-30.73333 23.472899,-54.62729 47.950694,-70.58272 13.98676,-9.11702 34.17975,-16.6899 38.78584,-14.54566 1.19487,0.55623 136.32874,94.57735 300.29749,208.9358 C 614.4375,560.19712 749.22656,653.76313 750,653.76313 c 0.77344,0 135.5625,-93.56601 299.5313,-207.92446 163.9687,-114.35845 299.1026,-208.37957 300.2974,-208.9358 4.6061,-2.14424 24.7991,5.42864 38.7859,14.54566 24.7347,16.1229 41.1651,40.61702 48.3051,72.01222 1.4842,6.52674 1.6156,35.30292 1.9115,419.03925 0.2195,284.6436 0.011,415.2673 -0.6732,422.4983 -1.4004,14.7917 -4.7615,27.0625 -10.7756,39.3409 -15.8699,32.3998 -45.3376,54.6305 -80.5562,60.7721 -9.8329,1.7147 -65.6619,2.1449 -66.6699,0.5137 -0.3838,-0.6209 -80.7285,-0.9424 -237.946,-0.9518 -130.55161,-0.01 -237.83424,-0.3243 -238.40587,-0.7032 -0.57162,-0.3788 -38.13478,-47.9387 -83.47369,-105.6887 -45.3389,-57.75 -93.78977,-119.4493 -107.66859,-137.1094 -13.87882,-17.6602 -25.78316,-32.1094 -26.45408,-32.1094 -0.67092,0 -29.58829,20.9649 -64.26084,46.5888 -105.00751,77.6031 -171.45806,126.6839 -237.61671,175.505 -59.21329,43.6958 -63.04792,46.6979 -63.58866,49.7812 -0.31649,1.8047 -0.74027,3.8086 -0.94173,4.4531 -0.52745,1.6875 -57.26583,1.4904 -66.76746,-0.2319 z"
       style="fill:#dddddd" />
    <path
       id="path4172"
       d="m 159.375,1265.5081 c -23.26961,-2.6843 -44.76505,-12.6986 -62.131331,-28.9456 -17.877395,-16.7251 -28.844707,-36.4627 -33.59998,-60.4687 -1.934366,-9.7653 -1.947514,-841.1482 -0.01347,-851.7188 3.00006,-16.39695 10.133122,-32.86494 19.882868,-45.90329 6.380179,-8.53222 18.032123,-19.88993 25.705663,-25.05653 12.33397,-8.30449 32.22898,-16.6198 38.38858,-16.04486 2.31624,0.2162 76.0287,51.15773 302.24917,208.87968 C 614.40871,560.97656 749.47328,654.84375 750,654.84375 c 0.52672,0 135.59129,-93.86719 300.1435,-208.59375 226.2205,-157.72195 299.9329,-208.66348 302.2492,-208.87968 6.1596,-0.57494 26.0546,7.74037 38.3886,16.04486 18.2194,12.26718 34.626,34.20521 41.5982,55.62294 5.6606,17.38835 5.2768,-14.7535 5.2768,441.89938 0,405.492 -0.058,419.7979 -1.7434,427.5 -5.0535,23.0988 -15.5038,41.4696 -32.9169,57.8648 -17.9625,16.9125 -38.7946,26.4896 -63.6493,29.2611 -11.1036,1.2381 -55.8546,1.3012 -57.7842,0.082 -1.245,-0.7871 -1.46,-45.0765 -1.875,-386.32628 l -0.4687,-385.43728 -263.6817,186.68623 C 870.51227,783.24501 751.30853,867.46372 750.63996,867.72028 749.97138,867.97684 630.47966,783.97523 485.1028,681.05006 L 220.78125,493.91338 220.3125,879.33466 c -0.41501,341.23564 -0.62996,385.52314 -1.875,386.31024 -1.74055,1.1002 -49.2941,0.9901 -59.0625,-0.1368 z"
       style="fill:#e0a3a2" />
    <path
       id="path4170"
       d="m 156.09375,1264.0178 c -1.54688,-0.2137 -6.01493,-1.1741 -9.92902,-2.134 -36.8909,-9.0481 -65.930341,-35.9871 -77.66954,-72.0515 -5.586606,-17.1629 -5.21394,14.2741 -5.21394,-439.8323 0,-397.35983 0.08141,-418.05602 1.675224,-425.8827 7.315502,-35.92393 28.572912,-63.29183 60.909696,-78.41829 12.44344,-5.82079 20.58898,-8.21618 23.43341,-6.89115 1.15867,0.53973 136.26292,94.56336 300.23167,208.94139 C 652.62165,589.41697 748.40338,655.70941 750,655.70967 c 1.59717,2.5e-4 96.26353,-65.50846 297.1875,-205.65248 162.1641,-113.10908 297.0845,-207.14262 299.8231,-208.96343 l 4.9793,-3.31056 7.2082,2.07903 c 16.3955,4.72893 33.7253,15.05833 46.2239,27.55154 14.8763,14.86989 25.0803,34.40315 29.6215,56.70353 1.5939,7.82676 1.6753,28.54151 1.6753,426.35145 0,398.41355 -0.08,418.51445 -1.6818,426.38625 -5.7627,28.3077 -22.8165,54.1321 -45.7641,69.2994 -9.8275,6.4956 -15.0246,9.1014 -25.5655,12.8181 -14.1065,4.974 -21.0053,5.715 -53.2052,5.715 l -28.9397,0 0,-386.25 c 0,-331.11286 -0.1881,-386.25 -1.3173,-386.25 -0.7245,0 -120.0096,84.03999 -265.0781,186.75554 C 870.09863,781.65859 750.77344,865.6991 750,865.69973 749.22656,865.70035 630.06126,781.76583 485.18822,679.17856 340.31517,576.59129 221.03002,492.52144 220.11009,492.35667 c -1.6029,-0.2871 -1.67259,15.79682 -1.67259,386.01563 l 0,386.3152 -29.76563,-0.1404 c -16.37109,-0.077 -31.03125,-0.3154 -32.57812,-0.5293 z"
       style="fill:#999999" />
    <path
       id="path4168"
       d="m 163.125,1264.0954 c -1.28906,-0.1932 -5.50781,-0.8159 -9.375,-1.3838 -10.02308,-1.4718 -20.63536,-5.0065 -31.09422,-10.3569 C 91.701521,1236.5196 70.702631,1207.663 65.129507,1173.3024 63.940528,1165.9719 63.757037,1111.17 63.75377,762.42187 63.751697,541.08984 64.088536,360 64.502303,360 c 0.413765,0 1.48833,2.04682 2.38792,4.54851 3.316257,9.22219 12.400417,21.61551 24.840252,33.88899 11.095555,10.94718 15.627045,14.36957 68.824675,51.9796 l 56.9471,40.26085 -0.2355,386.7704 -0.2355,386.77045 -25.78125,0.114 c -14.17969,0.063 -26.83594,-0.044 -28.125,-0.2374 z m 1120.0781,0.061 c -0.3867,-0.3955 -0.7031,-174.5904 -0.7031,-387.09975 l 0,-386.38056 56.946,-40.26006 c 53.2391,-37.63938 57.7185,-41.02287 68.815,-51.9788 12.3168,-12.1608 20.4823,-23.19375 24.436,-33.01676 1.0962,-2.72359 2.344,-5.35278 2.773,-5.84262 0.429,-0.48984 0.7783,180.49453 0.7763,402.1875 0,435.24025 0.2729,410.24715 -4.7257,426.43055 -10.1423,32.837 -36.9638,60.1959 -69.3331,70.7223 -13.9262,4.5288 -17.941,4.98 -48.75,5.4791 -16.2422,0.263 -29.8477,0.1546 -30.2344,-0.2409 z"
       style="fill:#cc4343" />
    <path
       id="path4166"
       d="m 155.625,1262.3187 c -22.17652,-3.4776 -41.78229,-13.2737 -57.969066,-28.9641 -13.3487,-12.9395 -21.854957,-26.1352 -27.245079,-42.265 -6.18304,-18.5026 -5.723355,15.7352 -5.723355,-426.28052 l 0,-401.19533 3.246548,6.22857 c 6.824217,13.09239 19.96568,28.57076 33.784702,39.79254 3.60938,2.931 30.92578,22.56398 60.70312,43.62886 l 54.14063,38.29975 0,386.09326 0,386.09327 -26.48438,-0.091 c -17.01041,-0.058 -29.33494,-0.5378 -34.45312,-1.3405 z m 1127.8125,-384.56596 0,-386.18927 54.1406,-38.29975 c 29.7774,-21.06488 57.0938,-40.69786 60.7032,-43.62886 13.819,-11.22178 26.9605,-26.70015 33.7846,-39.79254 l 3.2466,-6.22857 0,401.19533 c 0,442.01572 0.4597,407.77792 -5.7233,426.28052 -9.6854,28.983 -33.3885,53.7435 -62.2454,65.0219 -16.175,6.3219 -20.3984,6.9032 -53.6719,7.389 l -30.2344,0.4415 0,-386.18926 z"
       style="fill:#808080" />
  </g>
  <rect
     y="50"
     x="50"
     height="1288.2992"
     width="1702.6538"
     id="rect4188"
     style="fill:#ff0000;fill-opacity:0;stroke:#808080;stroke-width:100;stroke-linecap:round;stroke-linejoin:round;stroke-miterlimit:4;stroke-dasharray:none;stroke-dashoffset:24.92160034;stroke-opacity:1" />
</svg>
