<?xml version="1.0" encoding="UTF-8" standalone="no"?>
<svg
   xmlns:dc="http://purl.org/dc/elements/1.1/"
   xmlns:cc="http://creativecommons.org/ns#"
   xmlns:rdf="http://www.w3.org/1999/02/22-rdf-syntax-ns#"
   xmlns:svg="http://www.w3.org/2000/svg"
   xmlns="http://www.w3.org/2000/svg"
   viewBox="0 0 480 480"
   height="480"
   width="480"
   version="1.1"
   id="svg4136">
  <metadata
     id="metadata4142">
    <rdf:RDF>
      <cc:Work
         rdf:about="">
        <dc:format>image/svg+xml</dc:format>
        <dc:type
           rdf:resource="http://purl.org/dc/dcmitype/StillImage" />
        <dc:title></dc:title>
      </cc:Work>
    </rdf:RDF>
  </metadata>
  <defs
     id="defs4140" />
  <path
     id="path4146"
     d="M 44.73297,448.47901 C 37.754358,445.98425 32.946518,440.84886 31.071973,433.88733 30.445581,431.56109 30.208432,365.2314 30.370841,237.7834 l 0.245418,-192.588711 2.837284,-4.589065 c 1.758551,-2.844309 4.58209,-5.667797 7.426481,-7.426348 l 4.589197,-2.837284 194.678289,0 194.67829,0 4.58919,2.837284 c 2.8445,1.758612 5.66787,4.58198 7.42648,7.426454 l 2.83729,4.589171 0,194.604789 c 0,188.18608 -0.0577,194.71303 -1.75028,197.88605 -2.459,4.60987 -5.15404,7.3619 -9.49972,9.70061 l -3.75,2.01814 -193.125,0.19786 C 77.424619,449.7705 47.873871,449.60184 44.73297,448.47901 Z m 345.41454,-75.76598 c 0,-6.23466 -11.56609,-17.9074 -32.6192,-32.91996 -7.84068,-5.59106 -14.2558,-10.50724 -14.2558,-10.92486 0,-1.4152 1.73468,-1.84121 13.29912,-3.26604 13.59429,-1.67492 17.6601,-2.65557 20.48123,-4.93999 1.54601,-1.25188 1.9109,-2.22831 1.41574,-3.78841 -0.85495,-2.69372 -22.80186,-24.88894 -29.57109,-29.90566 -2.83594,-2.10172 -10.21875,-6.46047 -16.40625,-9.68609 -14.45984,-7.53809 -21.08703,-12.02348 -25.11878,-17.00081 -4.3117,-5.32295 -5.7261,-8.25902 -10.12698,-21.02205 -14.83909,-43.03497 -55.29512,-89.72923 -94.12924,-108.64376 -11.23967,-5.47438 -16.78685,-7.13521 -30.70455,-9.19292 -6.17859,-0.91349 -10.5851,-2.15195 -13.59375,-3.82054 -13.47688,-7.47426 -26.02507,-11.76987 -36.3267,-12.4357 -6.78768,-0.43871 -7.81164,-0.27353 -10.78125,1.73919 -4.52287,3.06547 -6.56124,7.53744 -6.55189,14.37406 0.0103,7.5446 2.33387,12.21157 13.40787,26.93062 11.27222,14.98251 12.66064,17.38261 18.04553,31.19438 5.80221,14.88216 9.19732,21.55889 13.73044,27.00184 4.14492,4.97685 4.19768,5.60058 1.36379,16.12316 -3.14777,11.68806 -4.27486,31.42549 -2.49651,43.71852 2.08219,14.39329 8.69014,29.18275 14.90503,33.35943 6.17926,4.15272 14.27136,1.83138 17.73671,-5.08805 0.97849,-1.95382 2.69515,-6.61099 3.8148,-10.34927 1.11963,-3.73829 2.43086,-6.79688 2.91383,-6.79688 0.48297,0 3.28159,3.69141 6.21916,8.20313 7.86664,12.08213 35.29315,38.72746 37.545,36.47562 0.32988,-0.32989 -1.16175,-3.02928 -3.31475,-5.99865 -8.56294,-11.80984 -18.15017,-26.80338 -27.04978,-42.30342 -13.51615,-23.54045 -15.38357,-25.41007 -20.38481,-20.40883 -3.38799,3.38799 -5.94744,9.08892 -8.58549,19.12333 -1.35145,5.1405 -3.20729,9.9466 -4.24857,11.00257 -1.84763,1.87371 -1.85046,1.87321 -4.10356,-0.71636 -3.773,-4.33648 -6.30598,-13.9489 -6.78383,-25.74401 -0.51429,-12.69454 0.56654,-19.49091 5.52521,-34.74317 l 3.74399,-11.51606 -4.13162,-7.70269 c -2.27238,-4.23649 -6.2843,-11.71052 -8.91538,-16.60896 -2.63107,-4.89844 -6.24537,-12.74578 -8.03177,-17.43855 -4.82664,-12.67931 -8.20117,-18.83458 -15.13995,-27.61584 -7.90294,-10.00146 -10.99711,-15.23828 -10.61115,-17.95919 0.25959,-1.82991 0.93791,-2.18372 4.64713,-2.42392 5.90762,-0.38257 13.06941,2.29251 24.92843,9.31126 l 9.80697,5.80426 12.04259,0.67013 c 14.44414,0.80378 17.66516,2.07447 35.43921,13.98077 23.30485,15.61121 39.71199,30.56106 48.75149,44.42133 2.63431,4.0392 11.80109,21.30998 20.37063,38.37952 23.27939,46.36991 25.06483,48.54645 46.37747,56.53672 15.61563,5.85442 24.52581,10.59397 33.64316,17.89568 0.92887,0.74389 -1.02986,1.20765 -11.18522,2.64824 -14.31236,2.03027 -19.81563,3.66871 -23.32092,6.94315 -3.66074,3.41964 -3.77221,6.72852 -0.39103,11.60756 3.18339,4.59364 16.26006,15.60715 26.59227,22.39672 9.64907,6.34066 39.33858,23.18568 40.96114,23.24025 0.64454,0.0216 1.17188,-0.93268 1.17188,-2.1208 z M 178.83481,170.01829 c 2.0689,-3.15754 1.41506,-11.80348 -1.10698,-14.63792 -4.30815,-4.84182 -14.87241,-7.11712 -18.36588,-3.95558 -2.68742,2.43207 -2.10123,3.97423 3.67618,9.67158 2.96485,2.92375 6.37194,6.65713 7.57131,8.2964 2.70742,3.70039 6.04435,3.95416 8.22537,0.62552 z"
     style="fill:#75787b;fill-opacity:1" />
</svg>
