<?xml version="1.0" encoding="UTF-8" standalone="no"?>
<svg
   xmlns:dc="http://purl.org/dc/elements/1.1/"
   xmlns:cc="http://creativecommons.org/ns#"
   xmlns:rdf="http://www.w3.org/1999/02/22-rdf-syntax-ns#"
   xmlns:svg="http://www.w3.org/2000/svg"
   xmlns="http://www.w3.org/2000/svg"
   width="48mm"
   height="48mm"
   viewBox="0 0 170.07875 170.07874"
   id="svg2"
   version="1.1">
  <defs
     id="defs4" />
  <metadata
     id="metadata7">
    <rdf:RDF>
      <cc:Work
         rdf:about="">
        <dc:format>image/svg+xml</dc:format>
        <dc:type
           rdf:resource="http://purl.org/dc/dcmitype/StillImage" />
        <dc:title></dc:title>
      </cc:Work>
    </rdf:RDF>
  </metadata>
  <g
     id="text4168-0"
     style="font-style:normal;font-variant:normal;font-weight:800;font-stretch:normal;font-size:90.00000763px;line-height:125%;font-family:'Rockwell Extra Bold';-inkscape-font-specification:'Rockwell Extra Bold, Ultra-Bold';text-align:end;letter-spacing:0px;word-spacing:0px;writing-mode:lr-tb;text-anchor:end;fill:#000000;fill-opacity:1;stroke:none;stroke-width:1px;stroke-linecap:butt;stroke-linejoin:miter;stroke-opacity:1">
    <path
       id="path4202"
       style=""
       d="m 65.176093,106.59455 -58.3154346,0 0,-14.633789 4.7460946,0 0,-31.860354 -4.8339852,0 0,-14.633791 58.4033252,0 0,19.555666 -16.04004,0 0,-4.921875 -13.88672,0 0,9.404297 12.084962,0 0,12.436525 -12.084962,0 0,10.019532 13.88672,0 0,-4.921876 16.04004,0 0,19.555665 z" />
    <path
       id="path4204"
       style=""
       d="m 72.07551,124.65608 0,-14.98536 q 1.40625,0.35157 2.592773,0.35157 2.812501,0 3.603516,-1.9336 0.747071,-1.97754 0.747071,-9.448241 l 0,-38.540042 -5.625001,0 0,-14.633791 34.497071,0 0,14.633791 -5.22949,0 0,35.815432 q 0,9.975591 -0.52734,14.062501 -0.52735,4.13086 -3.032231,7.86621 -2.592774,3.7793 -6.679688,5.66895 -4.086914,1.88965 -11.337892,1.88965 -4.174805,0 -9.008789,-0.74707 z" />
    <path
       id="path4206"
       style=""
       d="m 128.54525,106.59455 -13.75489,0 0,-19.59961 13.75489,0 q 2.46093,7.998048 9.27246,7.998048 4.92187,0 4.92187,-3.955079 0,-2.06543 -1.71387,-3.427735 -1.8457,-1.49414 -7.77832,-4.130859 -7.4707,-3.38379 -10.98633,-5.844727 -3.29589,-2.241211 -5.625,-6.19629 -2.3291,-3.911133 -2.3291,-8.657227 0,-8.525392 5.53711,-13.315431 5.49317,-4.790039 13.53516,-4.790039 8.04199,0 13.62305,4.570312 l 0,-3.779297 13.84277,0 0,17.402345 -13.66699,0 q -2.50488,-7.207031 -8.87695,-7.207031 -4.48243,0 -4.48243,3.823242 0,1.845703 1.27442,2.768555 1.23047,0.966797 7.9541,4.262696 9.00879,4.482422 12.04102,6.547852 1.53808,1.010742 3.12011,2.856445 1.62598,1.801758 2.68067,3.735352 2.41699,4.306641 2.41699,9.316407 0,7.690431 -5.71289,13.007811 -5.71289,5.40528 -14.41406,5.40528 -8.08594,0 -14.63379,-4.79004 l 0,3.99902 z" />
  </g>
</svg>
