<?xml version="1.0" encoding="UTF-8" standalone="no"?>
<svg
   xmlns:dc="http://purl.org/dc/elements/1.1/"
   xmlns:cc="http://creativecommons.org/ns#"
   xmlns:rdf="http://www.w3.org/1999/02/22-rdf-syntax-ns#"
   xmlns:svg="http://www.w3.org/2000/svg"
   xmlns="http://www.w3.org/2000/svg"
   version="1.1"
   id="svg2"
   viewBox="0 0 170.07875 170.07874"
   height="48mm"
   width="48mm">
  <defs
     id="defs4" />
  <metadata
     id="metadata7">
    <rdf:RDF>
      <cc:Work
         rdf:about="">
        <dc:format>image/svg+xml</dc:format>
        <dc:type
           rdf:resource="http://purl.org/dc/dcmitype/StillImage" />
        <dc:title></dc:title>
      </cc:Work>
    </rdf:RDF>
  </metadata>
  <g
     transform="translate(0,-882.28357)"
     id="layer1">
    <g
       id="text4136"
       style="font-style:normal;font-weight:normal;font-size:16.80666351px;line-height:125%;font-family:sans-serif;letter-spacing:0px;word-spacing:0px;fill:#000000;fill-opacity:1;stroke:none;stroke-width:1px;stroke-linecap:butt;stroke-linejoin:miter;stroke-opacity:1"
       transform="scale(0.59500211,1.6806663)">
      <path
         id="path4141"
         style="font-style:normal;font-variant:normal;font-weight:bold;font-stretch:normal;font-size:50.41998672px;font-family:Arial;-inkscape-font-specification:'Arial Bold'"
         d="m 48.434588,589.07513 -24.74223,-10.75856 0,-5.95783 24.74223,-10.70933 0,7.01646 -17.258013,6.59792 17.258013,6.84412 0,6.96722 z" />
      <path
         id="path4143"
         style="font-style:normal;font-variant:normal;font-weight:bold;font-stretch:normal;font-size:50.41998672px;font-family:Arial;-inkscape-font-specification:'Arial Bold'"
         d="m 52.989128,566.007 q 0,-4.84997 2.117246,-7.18879 2.141864,-2.33882 5.785496,-2.33882 3.766728,0 5.883973,2.33882 2.141865,2.3142 2.141865,7.18879 0,4.84997 -2.141865,7.18879 -2.117245,2.33881 -5.760877,2.33881 -3.766728,0 -5.908592,-2.31419 -2.117246,-2.33882 -2.117246,-7.21341 z m 5.39159,-0.0492 q 0,3.52054 0.812432,4.72687 0.615478,0.88629 1.69872,0.88629 1.107861,0 1.72334,-0.88629 0.787812,-1.20633 0.787812,-4.72687 0,-3.52054 -0.787812,-4.70225 -0.615479,-0.91091 -1.72334,-0.91091 -1.083242,0 -1.69872,0.88629 -0.812432,1.20633 -0.812432,4.72687 z m 7.779647,28.60743 -5.12078,0 19.227544,-38.0858 4.973065,0 -19.079829,38.0858 z m 11.177087,-9.47836 q 0,-4.84997 2.117245,-7.18879 2.141865,-2.33882 5.834735,-2.33882 3.717489,0 5.834735,2.33882 2.141865,2.33882 2.141865,7.18879 0,4.87459 -2.141865,7.2134 -2.117246,2.33882 -5.760878,2.33882 -3.766727,0 -5.908592,-2.33882 -2.117245,-2.33881 -2.117245,-7.2134 z m 5.39159,-0.0246 q 0,3.52054 0.812432,4.70225 0.615478,0.91091 1.69872,0.91091 1.107861,0 1.69872,-0.88629 0.812431,-1.20633 0.812431,-4.72687 0,-3.52054 -0.787812,-4.72687 -0.615478,-0.88629 -1.723339,-0.88629 -1.107861,0 -1.69872,0.88629 -0.812432,1.20633 -0.812432,4.72687 z" />
      <path
         id="path4145"
         style="font-style:normal;font-variant:normal;font-weight:bold;font-stretch:normal;font-size:50.41998672px;font-family:Arial;-inkscape-font-specification:'Arial Bold'"
         d="m 98.879198,593.18652 0,-36.09165 26.761002,0 0,6.10555 -19.47374,0 0,8.00122 18.11968,0 0,6.08092 -18.11968,0 0,9.82304 20.16307,0 0,6.08092 -27.450332,0 z" />
      <path
         id="path4147"
         style="font-style:normal;font-variant:normal;font-weight:bold;font-stretch:normal;font-size:50.41998672px;font-family:Arial;-inkscape-font-specification:'Arial Bold'"
         d="m 145.58169,557.09487 7.26264,0 0,22.84656 q 0,4.48068 -0.78781,6.89336 -1.05862,3.15125 -3.84058,5.07154 -2.78196,1.89567 -7.3365,1.89567 -5.34236,0 -8.2228,-2.97891 -2.88043,-3.00354 -2.90505,-8.78903 l 6.86874,-0.78782 q 0.12309,3.10201 0.9109,4.38221 1.18172,1.94491 3.5944,1.94491 2.43729,0 3.44668,-1.37867 1.00938,-1.40329 1.00938,-5.7855 l 0,-23.31432 z" />
      <path
         id="path4149"
         style="font-style:normal;font-variant:normal;font-weight:bold;font-stretch:normal;font-size:50.41998672px;font-family:Arial;-inkscape-font-specification:'Arial Bold'"
         d="m 158.77754,581.4432 7.09032,-0.68934 q 0.64009,3.56978 2.585,5.24388 1.96953,1.6741 5.29312,1.6741 3.52053,0 5.29311,-1.47715 1.7972,-1.50177 1.7972,-3.49592 0,-1.28019 -0.76319,-2.16648 -0.73858,-0.91091 -2.60963,-1.57563 -1.2802,-0.44314 -5.83474,-1.57562 -5.85935,-1.45253 -8.22279,-3.56978 -3.32358,-2.97891 -3.32358,-7.26264 0,-2.75734 1.551,-5.1454 1.57563,-2.41267 4.50531,-3.66825 2.95429,-1.25558 7.11493,-1.25558 6.79488,0 10.21694,2.97892 3.44667,2.97891 3.61901,7.95198 l -7.28726,0.32005 q -0.46777,-2.78196 -2.01877,-3.9883 -1.52639,-1.23096 -4.60378,-1.23096 -3.17587,0 -4.97307,1.30482 -1.1571,0.83705 -1.1571,2.24034 0,1.28019 1.08325,2.1911 1.37867,1.1571 6.6964,2.41268 5.31773,1.25557 7.8535,2.60962 2.56039,1.32944 3.9883,3.66825 1.45253,2.3142 1.45253,5.73626 0,3.10201 -1.72334,5.81012 -1.72334,2.7081 -4.87459,4.03754 -3.15124,1.30481 -7.8535,1.30481 -6.84412,0 -10.51237,-3.15125 -3.66825,-3.17587 -4.38221,-9.23217 z" />
      <path
         id="path4151"
         style="font-style:normal;font-variant:normal;font-weight:bold;font-stretch:normal;font-size:50.41998672px;font-family:Arial;-inkscape-font-specification:'Arial Bold'"
         d="m 192.8258,566.007 q 0,-4.84997 2.11725,-7.18879 2.14186,-2.33882 5.78549,-2.33882 3.76673,0 5.88398,2.33882 2.14186,2.3142 2.14186,7.18879 0,4.84997 -2.14186,7.18879 -2.11725,2.33881 -5.76088,2.33881 -3.76673,0 -5.90859,-2.31419 -2.11725,-2.33882 -2.11725,-7.21341 z m 5.39159,-0.0492 q 0,3.52054 0.81243,4.72687 0.61548,0.88629 1.69872,0.88629 1.10786,0 1.72334,-0.88629 0.78782,-1.20633 0.78782,-4.72687 0,-3.52054 -0.78782,-4.70225 -0.61548,-0.91091 -1.72334,-0.91091 -1.08324,0 -1.69872,0.88629 -0.81243,1.20633 -0.81243,4.72687 z m 7.77965,28.60743 -5.12078,0 19.22754,-38.0858 4.97307,0 -19.07983,38.0858 z m 11.17709,-9.47836 q 0,-4.84997 2.11724,-7.18879 2.14187,-2.33882 5.83474,-2.33882 3.71749,0 5.83473,2.33882 2.14187,2.33882 2.14187,7.18879 0,4.87459 -2.14187,7.2134 -2.11724,2.33882 -5.76088,2.33882 -3.76672,0 -5.90859,-2.33882 -2.11724,-2.33881 -2.11724,-7.2134 z m 5.39159,-0.0246 q 0,3.52054 0.81243,4.70225 0.61548,0.91091 1.69872,0.91091 1.10786,0 1.69872,-0.88629 0.81243,-1.20633 0.81243,-4.72687 0,-3.52054 -0.78781,-4.72687 -0.61548,-0.88629 -1.72334,-0.88629 -1.10786,0 -1.69872,0.88629 -0.81243,1.20633 -0.81243,4.72687 z" />
      <path
         id="path4153"
         style="font-style:normal;font-variant:normal;font-weight:bold;font-stretch:normal;font-size:50.41998672px;font-family:Arial;-inkscape-font-specification:'Arial Bold'"
         d="m 237.38643,589.09975 0,-6.96722 17.28264,-6.79488 -17.28264,-6.72102 0,-6.91798 24.76685,10.70932 0,5.9086 -24.76685,10.78318 z" />
    </g>
  </g>
</svg>
