<?xml version="1.0" encoding="UTF-8" standalone="no"?>
<svg
   xmlns:dc="http://purl.org/dc/elements/1.1/"
   xmlns:cc="http://creativecommons.org/ns#"
   xmlns:rdf="http://www.w3.org/1999/02/22-rdf-syntax-ns#"
   xmlns:svg="http://www.w3.org/2000/svg"
   xmlns="http://www.w3.org/2000/svg"
   version="1.1"
   id="svg2"
   viewBox="0 0 256 256"
   height="256"
   width="256">
  <defs
     id="defs4" />
  <metadata
     id="metadata7">
    <rdf:RDF>
      <cc:Work
         rdf:about="">
        <dc:format>image/svg+xml</dc:format>
        <dc:type
           rdf:resource="http://purl.org/dc/dcmitype/StillImage" />
        <dc:title></dc:title>
      </cc:Work>
    </rdf:RDF>
  </metadata>
  <g
     transform="translate(0,-796.36235)"
     id="layer1">
    <path
       id="path4158"
       d="m 132.84536,1033.7784 c -5.29852,-1.2702 -12.53804,-7.5995 -17.53407,-15.3293 -11.63108,-17.9955 -12.96497,-46.59209 -3.63899,-78.01468 5.43202,-18.30244 18.98979,-48.6528 22.30128,-49.92354 3.31579,-1.27239 42.70724,10.91554 54.62642,16.90171 9.27434,4.65786 26.78464,16.15564 41.4,27.18447 10.13866,7.65069 11.08214,9.63925 7.26267,15.30744 -1.28152,1.90183 -4.95528,8.18287 -8.1639,13.95787 -20.76923,37.38133 -42.53524,59.29663 -67.09877,67.55913 -8.90315,2.9947 -22.05822,4.0582 -29.15464,2.3569 z m 25.8415,-25.5586 c 5.28985,-1.6661 19.81314,-10.86706 19.81314,-12.55216 0,-0.26084 -2.8125,-0.0681 -6.25,0.42825 -8.2512,1.19147 -20.1704,0.11577 -25.67034,-2.31674 -6.81793,-3.01542 -12.47017,-8.22018 -18.11816,-16.68376 -2.83826,-4.25316 -5.40302,-7.95802 -5.69946,-8.23302 -1.07988,-1.00178 0.69129,16.63855 2.1587,21.5 1.89674,6.28379 6.63757,13.83683 10.11519,16.11553 6.46354,4.2351 13.97837,4.7885 23.65093,1.7419 z m 45.5519,-31.76286 c 0.22042,-0.22042 -0.4927,-2.15209 -1.58471,-4.29261 -2.71819,-5.32809 -10.2221,-12.03767 -14.31428,-12.79902 -4.838,-0.90011 -16.12144,-0.18375 -16.52782,1.04932 -0.6088,1.84728 5.69572,10.28936 9.38842,12.57157 6.22181,3.8453 10.40719,4.9445 16.71863,4.39079 3.25545,-0.28561 6.09934,-0.69963 6.31976,-0.92005 z m -45.51121,-22.42212 c 2.31536,-2.31536 -6.72995,-12.82603 -13.44543,-15.62362 -5.22124,-2.17511 -17.78212,-1.89513 -17.78212,0.39636 0,0.39156 1.39185,2.81323 3.09299,5.38149 5.41546,8.17585 12.8429,12.00778 21.79946,11.24666 2.96585,-0.25203 5.81664,-0.88243 6.3351,-1.40089 z M 87.197765,953.42904 C 77.11061,949.28123 70.373238,944.62893 61.034,935.36237 c -14.333024,-14.22148 -25.438435,-32.31554 -34.984314,-57 -2.552326,-6.6 -5.520139,-13.92454 -6.59514,-16.27675 -2.422035,-5.29967 -2.496526,-9.45213 -0.204546,-11.40228 3.574914,-3.04175 25.493549,-15.92641 36.386197,-21.38927 13.415066,-6.72791 22.551929,-9.20617 49.296023,-13.3709 23.04127,-3.5881 23.75002,-3.62189 25.90986,-1.2353 3.77699,4.17353 13.50761,41.49048 15.24773,58.47508 0.71831,7.01107 0.24473,7.79787 -3.14868,5.23122 -2.60473,-1.97011 -10.82854,-1.91633 -15.07468,0.0986 -4.84412,2.29869 -8.26224,6.93076 -12.79833,17.34369 l -3.93188,9.02591 -5.56812,0.01 c -7.060361,0.0124 -14.382029,3.30585 -18.972762,8.5344 -4.236689,4.82533 -8.693637,14.34724 -9.882442,21.11306 l -0.906163,5.15723 7.789133,-7.78913 c 7.358085,-7.35812 16.061873,-13.02536 20.004384,-13.02536 1.57298,0 1.54993,0.41384 -0.29239,5.25 -2.53872,6.66423 -7.793097,26.53271 -7.801505,29.5 -0.008,2.81434 -1.075785,2.79078 -8.30861,-0.18333 z m -18.94888,-58.43659 c 2.336886,-1.19327 5.356885,-3.8482 6.711108,-5.89983 2.276072,-3.44823 5.540007,-11.317 5.540007,-13.35598 0,-1.21465 -8.699357,-1.08544 -13.320779,0.19785 -7.110751,1.97455 -12.915136,9.08602 -16.177335,19.8203 -0.726908,2.3919 -0.725553,2.39232 6.135523,1.89984 4.225536,-0.3033 8.49529,-1.32629 11.111476,-2.66218 z m 56.034355,-22.52199 c 2.59422,-1.31556 5.52981,-3.29172 6.52354,-4.39148 1.75791,-1.94549 1.72568,-2.05731 -1.192,-4.13488 -9.96379,-7.09484 -21.05497,-6.58613 -31.57387,1.44819 -1.945452,1.48593 -1.945452,1.50995 0,3.45113 6.25716,6.2434 17.90763,7.85365 26.24233,3.62704 z"
       style="fill:#000000" />
  </g>
</svg>
