<?xml version="1.0" encoding="UTF-8" standalone="no"?>
<svg
   xmlns:dc="http://purl.org/dc/elements/1.1/"
   xmlns:cc="http://creativecommons.org/ns#"
   xmlns:rdf="http://www.w3.org/1999/02/22-rdf-syntax-ns#"
   xmlns:svg="http://www.w3.org/2000/svg"
   xmlns="http://www.w3.org/2000/svg"
   style="enable-background:new"
   version="1.1"
   id="svg2"
   viewBox="0 0 360 360"
   height="360"
   width="360">
  <defs
     id="defs4">
    <filter
       id="filter4171"
       style="color-interpolation-filters:sRGB">
      <feBlend
         id="feBlend4173"
         in2="BackgroundImage"
         mode="darken" />
    </filter>
  </defs>
  <metadata
     id="metadata7">
    <rdf:RDF>
      <cc:Work
         rdf:about="">
        <dc:format>image/svg+xml</dc:format>
        <dc:type
           rdf:resource="http://purl.org/dc/dcmitype/StillImage" />
        <dc:title></dc:title>
      </cc:Work>
    </rdf:RDF>
  </metadata>
  <g
     transform="translate(0,-692.36214)"
     style="filter:url(#filter4171)"
     id="layer1">
    <g
       transform="translate(-174.05347,529.42852)"
       id="g4147">
      <path
         id="path4149"
         d="m 178.88762,375.18362 c 0.3409,-8.1125 1.24059,-17 1.9993,-19.75 4.12058,-14.9353 12.48881,-22.50484 29.05842,-26.285 8.36413,-1.90818 44.69816,-2.07538 60.62609,-0.27899 5.225,0.58929 17.375,1.36057 27,1.71397 14.91895,0.54776 18.38493,0.38773 23.5,-1.08503 7.76454,-2.23562 14.62921,-6.65071 17.80711,-11.45284 3.05846,-4.62164 5.69289,-13.08716 5.69289,-18.29361 l 0,-3.8185 9.37083,0 9.37084,0 0.66999,5.92199 c 0.83686,7.3968 5.47481,16.89314 10.33437,21.15988 9.09518,7.98567 17.55074,8.99912 54.75397,6.56255 50.59331,-3.31353 62.28753,-3.09538 75.66603,1.41151 17.91036,6.03357 23.6347,16.21006 24.57819,43.69407 l 0.52351,15.25 -7.98304,0 -7.98304,0 -0.63935,-9.73318 c -0.89083,-13.56157 -3.90856,-19.64413 -11.6623,-23.50661 -3.025,-1.50689 -7.92392,-3.19439 -10.88649,-3.75 -7.08539,-1.32883 -30.28554,-1.2912 -63.61351,0.10318 -46.79387,1.95776 -59.93596,-1.252 -68.04126,-16.61806 -1.73934,-3.29743 -3.88301,-6.13677 -4.76373,-6.30963 -1.09108,-0.21416 -2.55813,1.58116 -4.60424,5.63449 -5.4098,10.71675 -12.60089,14.91654 -29.59077,17.28179 -5.97786,0.83221 -16.84684,0.79462 -43,-0.14874 -55.27197,-1.99368 -67.39222,-0.81835 -75.25895,7.29806 -4.18092,4.31361 -5.84145,9.38247 -6.72318,20.52287 l -0.73019,9.22583 -8.04566,0 -8.04566,0 0.61983,-14.75 z"
         style="fill:#010101" />
    </g>
  </g>
</svg>
